<?xml version="1.0" encoding="UTF-8"?>
<svg width="34px" height="32px" viewBox="0 0 34 32" version="1.1" xmlns="http://www.w3.org/2000/svg" xmlns:xlink="http://www.w3.org/1999/xlink">
    <!-- Generator: Sketch 53.1 (72631) - https://sketchapp.com -->
    <title>Icons/Photo</title>
    <desc>Created with Sketch.</desc>
    <defs>
        <path d="M6.18181818,9.27272727 C4.47718182,9.27272727 3.09090909,10.659 3.09090909,12.3636364 L3.09090909,26.2727273 C3.09090909,27.9773636 4.47718182,29.3636364 6.18181818,29.3636364 L27.8181818,29.3636364 C29.5228182,29.3636364 30.9090909,27.9773636 30.9090909,26.2727273 L30.9090909,12.3636364 C30.9090909,10.659 29.5228182,9.27272727 27.8181818,9.27272727 L23.902,9.27272727 L20.8095455,4.63636364 L13.2399091,4.63636364 L10.0918182,9.27272727 L6.18181818,9.27272727 Z M27.8181818,32.4545455 L6.18181818,32.4545455 C2.77254545,32.4545455 0,29.682 0,26.2727273 L0,12.3636364 C0,8.95436364 2.77254545,6.18181818 6.18181818,6.18181818 L8.45363636,6.18181818 L11.6017273,1.54545455 L22.4631818,1.54545455 L25.5556364,6.18181818 L27.8181818,6.18181818 C31.2274545,6.18181818 34,8.95436364 34,12.3636364 L34,26.2727273 C34,29.682 31.2274545,32.4545455 27.8181818,32.4545455 Z M16.9358636,14.2101455 C19.3854091,14.2101455 21.3790455,16.2037818 21.3790455,18.6533273 C21.3790455,21.1028727 19.3854091,23.0965091 16.9358636,23.0965091 C14.4863182,23.0965091 12.4926818,21.1028727 12.4926818,18.6533273 C12.4926818,16.2037818 14.4863182,14.2101455 16.9358636,14.2101455 Z M16.9358636,26.1874182 C21.0900455,26.1874182 24.4699545,22.8075091 24.4699545,18.6533273 C24.4699545,14.4991455 21.0900455,11.1192364 16.9358636,11.1192364 C12.7816818,11.1192364 9.40177273,14.4991455 9.40177273,18.6533273 C9.40177273,22.8075091 12.7816818,26.1874182 16.9358636,26.1874182 Z" id="path-1"></path>
    </defs>
    <g id="Screens" stroke="none" stroke-width="1" fill="none" fill-rule="evenodd">
        <g id="Light-Version---Edit-Profile" transform="translate(-171.000000, -198.000000)">
            <g id="Photo" transform="translate(88.000000, 114.000000)">
                <g id="Icons/Photo" transform="translate(83.000000, 83.000000)">
                    <mask id="mask-2" fill="white">
                        <use xlink:href="#path-1"></use>
                    </mask>
                    <g id="Combined-Shape"></g>
                    <g id="Style/Fill/White" mask="url(#mask-2)" fill="#FFFFFF" fill-rule="evenodd">
                        <rect id="Background" x="0" y="0" width="34" height="34"></rect>
                    </g>
                </g>
            </g>
        </g>
    </g>
</svg>