<svg xmlns="http://www.w3.org/2000/svg" viewBox="0 0 27.74 35.13"><defs><style>.cls-1{fill:#f9ed32;}.cls-2{font-size:5.88px;fill:#fff;font-family:Montserrat-Bold, Montserrat;font-weight:700;}.cls-3{letter-spacing:0em;}</style></defs><title>startIcon</title><g id="Layer_2" data-name="Layer 2"><g id="Layer_3" data-name="Layer 3"><path class="cls-1" d="M13.87,0A13.65,13.65,0,0,0,0,13.42a13.1,13.1,0,0,0,2.76,8l9.51,12.88c.68.74,2,1.58,3.68-.65l9-12.23a13.1,13.1,0,0,0,2.76-8A13.65,13.65,0,0,0,13.87,0Zm-.29,22.76a9.7,9.7,0,0,1-9.8-9.59,9.7,9.7,0,0,1,9.8-9.59,9.69,9.69,0,0,1,9.79,9.59A9.7,9.7,0,0,1,13.58,22.76Z"/><text class="cls-2" transform="translate(6.81 14.07)"><tspan class="cls-3">s</tspan><tspan x="3.03" y="0">tart</tspan></text></g></g></svg>